<svg xmlns="http://www.w3.org/2000/svg" viewBox="0 0 440.58 864.44"><defs><style>.cls-1{fill:#00ff85;}</style></defs><g id="Layer_2" data-name="Layer 2"><g id="Layer_1-2" data-name="Layer 1"><polygon class="cls-1" points="24.74 0 108.57 83.57 196.43 0 24.74 0"/><polygon class="cls-1" points="330.24 500.41 330.24 500.16 220.16 441.84 220.16 442.6 220.16 517.58 330.24 575.4 330.24 500.41"/><polygon class="cls-1" points="440.58 708.71 330.24 650.64 330.24 650.64 220.16 592.82 220.16 517.64 330.24 575.49 330.24 650.64 440.58 708.71 440.58 633.47 330.24 575.4 330.24 575.4 330.24 575.4 220.16 517.58 110.08 459.76 110.08 412.18 138.1 397.91 220.16 348.17 232.03 340.85 229.75 155.53 108.57 83.57 108.57 170.42 161.59 203.75 0 304.49 0 401.95 110.08 459.8 110.08 535 0 477.19 0 552.42 110.08 610.24 110.08 535.03 220.16 592.88 220.16 668.06 294.8 707.26 220.16 668.06 220.16 668.06 110.08 610.24 0 552.42 110.08 610.27 110.08 691.89 220.16 748.95 220.16 668.12 330.24 725.97 330.24 807.13 440.58 864.44 440.58 783.95 330.24 725.88 330.24 650.73 440.58 708.71"/></g></g></svg>